<?xml version="1.0" encoding="UTF-8"?>
<svg id="Layer_1" xmlns="http://www.w3.org/2000/svg" viewBox="0 0 13558.66 4656.13">
  <defs>
    <style>
      .cls-1 {
        fill: #9eb734;
      }

      .cls-2 {
        fill: #7dbf43;
      }
    </style>
  </defs>
  <path class="cls-1" d="M488.29,3091.93c-20.15,18.35-42.67,33.42-66.85,45.06,24.92-12.09,47.3-27.46,66.85-45.06Z"/>
  <g>
    <path class="cls-2" d="M2870.84,1334.09c-125.45-213.41-302.33-381.63-524.86-499.88-223.03-118.24-484.5-178.32-776.74-178.32H343.11v2870.43h1226.14c292.24,0,553.71-60.08,776.74-178.32,223.02-118.24,399.41-286.46,524.86-499.87,125.45-213.9,188.89-468.63,188.89-757.02s-63.44-543.14-188.89-757.02ZM2329.63,2572.72c-74.5,136.98-180.24,244.16-314.83,317.22-134.09,73.54-294.63,110.55-476.8,110.55h-580.63v-1818.78h580.63c182.17,0,342.71,37.01,476.8,110.55,134.58,73.54,240.32,179.28,314.83,315.31,74.5,135.53,111.99,298.48,111.99,483.54s-37.49,344.14-111.99,481.61Z"/>
    <path class="cls-2" d="M4730.95,1325.91v542.65c-19.22-4.33-38.44-7.69-57.19-10.09-22.59-2.41-44.7-3.85-65.36-3.85-172.56,0-312.42,52.39-414.81,155.26-102.38,103.33-154.29,263.86-154.29,477.76v1038.68h-587.35V1324.46h559.95v317.23l17.79-25.96c58.16-85.56,130.74-154.29,214.37-203.79,133.61-78.82,273.97-85.56,486.89-86.04Z"/>
    <rect class="cls-2" x="5119.8" y="1324.46" width="586.87" height="2201.86"/>
    <path class="cls-2" d="M8333.43,1324.46l-762.8,1920.2c-68.25,171.11-230.71,281.65-417.21,281.65s-347.51-110.54-415.28-282.13l-758.95-1919.72h600.81l576.3,1507.32,8.66,22.59,9.13-22.59,600.81-1507.32h558.52Z"/>
    <path class="cls-2" d="M10823.66,1324.46l-762.78,1920.2c-67.78,171.11-230.71,281.65-416.73,281.65s-347.51-110.54-415.28-282.13l-759.43-1919.72h601.29l576.3,1507.32,8.65,22.59,9.13-22.59,600.34-1507.32h558.51Z"/>
    <path class="cls-2" d="M13314.39,1324.46l-939.19,2344.61c-66.82,179.29-144.19,321.07-229.75,420.09-85.56,99.02-180.72,169.67-283.58,210.05-103.35,40.37-219.18,61.04-344.63,61.04-104.3,0-210.52-17.79-315.78-52.88-101.42-34.61-187.46-82.19-255.23-141.79l212.44-444.12c45.18,43.25,97.09,76.91,154.78,99.98,61.99,25.46,124.96,37.97,188.41,37.97,84.59,0,154.29-22.12,206.2-66.34,51.42-43.27,99-116.31,140.83-216.29l7.21-18.74,1.44-3.37-1.44-3.85-895.92-2226.37h601.29l585.91,1501.07,8.65,23.07,9.13-23.07,590.72-1501.07h558.52Z"/>
    <path class="cls-2" d="M5764.35,646.76c0,193.7-157.65,351.35-351.36,351.35s-350.86-157.64-350.86-351.35,157.64-350.88,350.86-350.88,351.36,157.65,351.36,350.88Z"/>
  </g>
</svg>