<?xml version="1.0" encoding="UTF-8"?>
<svg id="Layer_1" data-name="Layer 1" xmlns="http://www.w3.org/2000/svg" viewBox="0 0 5396.14 5488.99">
  <defs>
    <style>
      .cls-1 {
        fill: gray;
      }
    </style>
  </defs>
  <g>
    <path class="cls-1" d="M5134.28,1880.39c1.45-415.59-129.62-778.85-417.71-1080.88-263.53-276.27-586.82-435.62-968.11-460.03-349.16-22.34-699.43-2.9-1049.17-9.03-351.54,6.22-703.77-15.05-1054.54,9.6-428.63,30.14-778.7,224.12-1048.58,556.5-233.04,287-334.92,620.33-332.14,989.17,3.11,414.7-.22,829.45,1.08,1244.17.73,230.75-11.88,462.02,7.17,692.17,35.46,428.23,225.8,778.39,558.45,1047.99,285.66,231.53,617.16,333.6,984.05,331.25,427.33-2.76,854.7.2,1282.04-1.01,219.93-.62,440.32,10.97,659.72-7.07,422.46-34.72,769.24-222.17,1037.63-546.72,236.48-285.97,341.89-620.61,340.28-991.81-2.57-591.43-2.23-1182.87-.16-1774.3ZM4750.44,3756.95c-14.56,474.78-350.19,889.24-807.27,1020.47-110.46,31.7-222.4,44.37-336.41,44.4-605.77.18-1211.56,3.46-1817.3-1-481.69-3.54-831.19-227.96-1044.37-659.17-73.67-149.01-102.13-310.4-101.89-477.19.84-612.99-4.39-1226.01,1.87-1838.92,4.87-477.19,231.38-822.85,658.64-1033.58,149.1-73.52,310.42-102.1,477.22-101.87,612.98.85,1226.01-4.47,1838.93,1.89,477.06,4.96,823.2,230.92,1033.53,658.63,75,152.5,103.08,317.52,102.12,488.03-1.7,302.88-.48,605.77-.48,908.64-.88,0-1.76.01-2.64.01,0,329.9,8.17,660.07-1.95,989.67Z"/>
    <path class="cls-1" d="M4082.18,1675.07c-146.76.2-264.93-117.7-264.89-264.28.04-147.04,117.65-264.89,264.32-264.86,147.24.03,264.52,117.03,264.88,264.24.36,146.51-117.57,264.71-264.32,264.9Z"/>
    <path class="cls-1" d="M2718.38,1416.9c-749.07-4.91-1362.97,604.26-1368.37,1357.85-5.36,749.97,603.22,1362.99,1357.76,1367.66,751.18,4.65,1362.26-601.67,1367.73-1357.06,5.44-749.89-603.08-1363.5-1357.13-1368.45ZM2710.92,3763.87c-543.72-.71-983.77-442.54-982.11-986.08,1.66-543.25,445.69-985.18,986.76-982.11,546.15,3.12,982.88,442.23,981.42,986.79-1.47,545.21-440.44,982.11-986.07,981.39Z"/>
  </g>
  <path class="cls-1" d="M3282.49,4398.82c1.93,0,1.93-3,0-3s-1.93,3,0,3h0Z"/>
</svg>