<?xml version="1.0" encoding="UTF-8"?>
<svg id="Layer_1" data-name="Layer 1" xmlns="http://www.w3.org/2000/svg" viewBox="0 0 5396.14 5488.99">
  <defs>
    <style>
      .cls-1 {
        fill: gray;
      }
    </style>
  </defs>
  <path class="cls-1" d="M5037.27,785.99c0-44.16-.89-88.14-12.8-131.1-41.19-148.57-174.05-247.9-337.18-247.95-1325.51-.44-2651.03-.25-3976.54-.25-6.53,0-13.07-.17-19.59.14-154.52,7.32-282.6,107.47-320.33,250.77-11.75,44.63-11.97,90.36-11.97,136.14.1,1299.28.08,2598.56.09,3897.83,0,14.69-.18,29.39.25,44.07,5.92,203.2,151.35,346.39,354.43,346.44,1322.25.32,2644.5.15,3966.74.25,32.84,0,65.21-3.11,96.96-11.3,162.58-41.92,259.58-174.46,259.69-357.85.4-656.17.16-1312.33.16-1968.5,0-652.9-.02-1305.81.07-1958.71ZM1699.12,4389.48c-199.12-1.67-398.27-1.84-597.38.09-38.4.37-49.06-9.55-48.89-48.54,1.55-355.79.91-711.58.91-1067.38,0-354.16.88-708.33-1.12-1062.48-.25-44.16,11.93-53.84,54.41-53.34,197.47,2.36,394.99,1.94,592.48.23,36.4-.31,46.82,9.39,46.77,46.4-1.09,713.22-1.12,1426.44.06,2139.66.06,38.04-11.75,45.65-47.25,45.35ZM1398.71,1855.08c-222.82-1.71-399.8-180.99-398.61-403.79,1.19-223.39,179.63-401.6,401.46-400.96,220.97.64,403.13,181.89,403.37,401.36.24,221.94-184.2,405.1-406.22,403.39ZM4295.27,4389.64c-199.1-2.14-398.25-2.19-597.35.05-40.24.45-48.09-12.4-47.97-49.65,1.23-375.36.87-750.72.5-1126.08-.09-96.58-7.45-192.41-39.47-284.63-47.61-137.13-144.25-209.21-288.86-215.84-246.24-11.29-383.37,95.67-430.69,338.01-8.72,44.65-15.81,90.47-16.06,135.79-2.1,381.86-3.15,763.73-2.3,1145.59.1,43.75-9.54,57.62-55.69,56.97-197.45-2.78-394.97-1.91-592.45-.47-33.42.24-44.44-7.93-44.39-43.09,1-714.82.98-1429.64.02-2144.45-.05-34.88,10.72-43.89,44.41-43.64,190.95,1.42,381.93,1.57,572.87-.1,35.69-.31,48.52,7.85,47.22,45.76-2.9,84.37-.9,168.92-.9,253.39,4.02,1.81,8.05,3.61,12.07,5.42,38.22-62.67,82.11-120.48,137.24-168.71,152.27-133.24,331.93-189.84,531.69-188.59,146.57.92,290.13,20.34,423.17,86.2,207.68,102.81,306.14,284.61,354.93,500.53,36.55,161.76,42.75,326.28,42.67,491.34-.2,385.15-.68,770.31.9,1155.46.17,41.02-11.27,51.19-51.58,50.75Z"/>
</svg>